<svg xmlns="http://www.w3.org/2000/svg">

    <symbol id="tube" viewBox="0 0 15.9922 16">
        <path d="m12.5547 9.47656a1.65923 1.65923 0 0 1 .6562.13284 1.61749 1.61749 0 0 1 .5625.3672l1.7188 1.7187a1.62216 1.62216 0 0 1 .3672.5625 1.66143 1.66143 0 0 1 .1328.6563 1.71811 1.71811 0 0 1 -.1328.664 1.6383 1.6383 0 0 1 -.3672.5547q-.44535.45315-.8125.8047a4.85023 4.85023 0 0 1 -.7578.5859 3.302 3.302 0 0 1 -.8672.3594 4.87279 4.87279 0 0 1 -1.1485.1172 7.07 7.07 0 0 1 -2.00776-.3047 11.25128 11.25128 0 0 1 -2.05469-.8437 15.03389 15.03389 0 0 1 -2-1.2813 18.12536 18.12536 0 0 1 -1.85156-1.6172 18.62825 18.62825 0 0 1 -1.60157-1.8593 14.89387 14.89387 0 0 1 -1.26562-2 11.32641 11.32641 0 0 1 -.82812-2.03911 7.00384 7.00384 0 0 1 -.29688-1.96875 4.771 4.771 0 0 1 .11719-1.14063 3.3047 3.3047 0 0 1 .35937-.86719 4.41361 4.41361 0 0 1 .58594-.75781q.35157-.36719.80469-.8125a1.7405 1.7405 0 0 1 .55469-.375 1.68 1.68 0 0 1 .66406-.13281 1.66078 1.66078 0 0 1 .65625.13281 1.71776 1.71776 0 0 1 .5625.375l1.71875 1.71875a1.61953 1.61953 0 0 1 .36718.5625 1.66061 1.66061 0 0 1 .13282.65625 1.55246 1.55246 0 0 1 -.11719.61719 2.25046 2.25046 0 0 1 -.28906.48438 2.77134 2.77134 0 0 1 -.38281.39843q-.20313.17969-.375.35157a2.19786 2.19786 0 0 0 -.28907.35156.65207.65207 0 0 0 -.11719.375.69227.69227 0 0 0 .21094.50781l4.30469 4.30465a.692.692 0 0 0 .50781.211.65235.65235 0 0 0 .375-.1172 2.19607 2.19607 0 0 0 .3515-.2891q.1719-.1719.3516-.375a2.77475 2.77475 0 0 1 .3984-.3828 2.24933 2.24933 0 0 1 .4844-.289 1.55122 1.55122 0 0 1 .61724-.11724zm-.6485 5.52344a3.65411 3.65411 0 0 0 .9376-.1016 2.5762 2.5762 0 0 0 .6874-.3046 3.69262 3.69262 0 0 0 .5938-.5q.289-.297.6641-.6719a.69242.69242 0 0 0 .2109-.5078.645.645 0 0 0 -.1172-.3282 2.579 2.579 0 0 0 -.289-.4062q-.1797-.2109-.4063-.4297-.2187-.2265-.4375-.4219-.2109-.2031-.3984-.3672-.1797-.17175-.2813-.2734a.7014.7014 0 0 0 -.5156-.2109.65158.65158 0 0 0 -.375.1172 2.40814 2.40814 0 0 0 -.3438.289q-.17175.1719-.3593.3828a3.02745 3.02745 0 0 1 -.3985.375 2.18281 2.18281 0 0 1 -.4922.2891 1.49643 1.49643 0 0 1 -.60934.1172 1.81173 1.81173 0 0 1 -.66406-.125 1.74258 1.74258 0 0 1 -.55469-.375l-4.30469-4.30471a1.74094 1.74094 0 0 1 -.375-.55469 1.81111 1.81111 0 0 1 -.125-.66406 1.49649 1.49649 0 0 1 .11719-.60938 2.185 2.185 0 0 1 .28907-.49218 3.02741 3.02741 0 0 1 .375-.39844q.21093-.1875.38281-.35938a2.41124 2.41124 0 0 0 .28906-.34375.652.652 0 0 0 .11719-.375.7014.7014 0 0 0 -.21094-.51562q-.10156-.10156-.27344-.28125-.16406-.1875-.36718-.39844-.19531-.21875-.42188-.4375-.21875-.22656-.42969-.40625a2.57511 2.57511 0 0 0 -.40625-.28906.64456.64456 0 0 0 -.32812-.11719.69224.69224 0 0 0 -.50782.21094q-.375.375-.67187.66406a4.32088 4.32088 0 0 0 -.5.59375 2.4369 2.4369 0 0 0 -.3125.6875 3.61605 3.61605 0 0 0 -.10156.92969 6.21912 6.21912 0 0 0 .28125 1.80468 10.52565 10.52565 0 0 0 .78906 1.85938 14.70162 14.70162 0 0 0 1.19531 1.8359 16.55477 16.55477 0 0 0 1.5 1.7032 17.04111 17.04111 0 0 0 1.71094 1.4843 14.84515 14.84515 0 0 0 1.82813 1.1797 10.62568 10.62568 0 0 0 1.84372.7735 6.20576 6.20576 0 0 0 1.7656.2734z"/>
    </symbol>

    <symbol id="map-pin" viewBox="0 0 15 16">
        <path d="m15 16h-15l3-9h4v-2.04688a2.52891 2.52891 0 0 1 -.80469-.32031 2.56357 2.56357 0 0 1 -.63281-.54687 2.54778 2.54778 0 0 1 -.41406-.73438 2.46165 2.46165 0 0 1 -.14844-.85156 2.421 2.421 0 0 1 .19531-.96875 2.50708 2.50708 0 0 1 .53125-.78906 2.53482 2.53482 0 0 1 .79688-.53906 2.39493 2.39493 0 0 1 .97656-.20313 2.34094 2.34094 0 0 1 .96875.20313 2.44343 2.44343 0 0 1 .78906.53906 2.44361 2.44361 0 0 1 .53907.78906 2.34109 2.34109 0 0 1 .20312.96875 2.46165 2.46165 0 0 1 -.14844.85156 2.54778 2.54778 0 0 1 -.41406.73438 2.56357 2.56357 0 0 1 -.63281.54687 2.52891 2.52891 0 0 1 -.80469.32031v2.04688h4zm-9-13.5a1.47153 1.47153 0 0 0 .11719.58594 1.49209 1.49209 0 0 0 .79687.79687 1.52342 1.52342 0 0 0 1.17188 0 1.49209 1.49209 0 0 0 .79687-.79687 1.52342 1.52342 0 0 0 0-1.17188 1.49209 1.49209 0 0 0 -.79687-.79687 1.52342 1.52342 0 0 0 -1.17188 0 1.49209 1.49209 0 0 0 -.79687.79687 1.47153 1.47153 0 0 0 -.11719.58594zm-4.60938 12.5h12.21878l-2.3282-7h-3.2812v3.75a.16281.16281 0 0 1 -.0625.125.451.451 0 0 1 -.14062.0781 1.49148 1.49148 0 0 1 -.16407.0391q-.07812.0078-.13281.0078t-.14062-.0078q-.07813-.0156-.16407-.0391a.6119.6119 0 0 1 -.14062-.0781.17209.17209 0 0 1 -.05469-.125v-3.75h-3.28125z"/>
    </symbol>

    <symbol id="arrow-slider" viewBox="0 0 35.8945 33.08202">
        <path d="m35.8945 16.541-16.541 16.541-1.582-1.582 13.834-13.834h-31.6055v-2.25h31.6055l-13.834-13.834 1.582-1.582z"/>
    </symbol>

    <symbol id="arrow" viewBox="0 0 9.24264 12.82843">
        <path d="m1.41421 1.41421 5 5-5 5" fill="none" stroke-width="4"/>
    </symbol>

    <symbol id="share" viewBox="0 0 23.25 21">
        <path d="m16.5 18 1.5-1.5v4.5h-18v-15h1.5v13.5h15zm-1.5-6a14.185 14.185 0 0 0 -2.9414.3047 13.72825 13.72825 0 0 0 -2.76563.8789 14.91146 14.91146 0 0 0 -4.79297 3.3164v-1.5a10.27215 10.27215 0 0 1 .375-2.7891 10.54842 10.54842 0 0 1 7.3242-7.3359 10.39931 10.39931 0 0 1 2.8008-.375v-4.5l8.25 8.25-8.25 8.25zm1.5-6q-.7149 0-1.3359.01172-.62115 0-1.2188.05859a8.73045 8.73045 0 0 0 -2.4492.63281 8.75615 8.75615 0 0 0 -1.89844 1.07813 9.13594 9.13594 0 0 0 -1.5586 1.5 9.32437 9.32437 0 0 0 -1.16015 1.81645 8.80746 8.80746 0 0 0 -.69141 2.0507 15.576 15.576 0 0 1 4.207-1.9804 16.02 16.02 0 0 1 4.6055-.668h1.5v2.3789l4.6289-4.6289-4.6289-4.62891z"/>
    </symbol>

    <symbol id="mail" viewBox="0 0 24 15">
        <path d="m0 0h24v15h-24zm22.3242 1.5h-20.64842l10.32422 5.168zm-20.8242 12h21v-10.40625l-10.5 5.23825-10.5-5.23825z"/>
    </symbol>

    <symbol id="headset" viewBox="0 0 18 24">
        <path d="m9 0a8.65919 8.65919 0 0 1 2.3906.32813 8.98743 8.98743 0 0 1 6.2813 6.28125 8.66121 8.66121 0 0 1 .3281 2.39062v5.25a2.207 2.207 0 0 1 -.1758.8789 2.237 2.237 0 0 1 -1.1953 1.1953 2.207 2.207 0 0 1 -.8789.1758h-2.25v-7.5h2.25a1.58788 1.58788 0 0 1 .3867.04688 2.74991 2.74991 0 0 1 .3633.09374 7.65345 7.65345 0 0 0 -.5742-2.96484 7.537 7.537 0 0 0 -1.582-2.42578 7.42683 7.42683 0 0 0 -5.3438-2.25 7.3416 7.3416 0 0 0 -1.99219.26953 7.46284 7.46284 0 0 0 -1.793.76172 7.33416 7.33416 0 0 0 -1.5234 1.17187 7.60449 7.60449 0 0 0 -1.17188 1.51172 7.75956 7.75956 0 0 0 -.75 1.793 7.3416 7.3416 0 0 0 -.26953 1.99216v.14062a2.74922 2.74922 0 0 1 .36328-.09374 1.588 1.588 0 0 1 .38672-.04688h2.25v7.5h-1.5v1.5a2.96138 2.96138 0 0 0 .23438 1.1719 3.055 3.055 0 0 0 1.59374 1.5937 2.96071 2.96071 0 0 0 1.17188.2344 1.45343 1.45343 0 0 1 .11719-.5859 1.50311 1.50311 0 0 1 .3164-.4688 1.54611 1.54611 0 0 1 .48047-.3281 1.454 1.454 0 0 1 .58594-.1172h3a1.45394 1.45394 0 0 1 .5859.1172 1.64551 1.64551 0 0 1 .7969.7969 1.45394 1.45394 0 0 1 .1172.5859v1.5a1.45394 1.45394 0 0 1 -.1172.5859 1.54566 1.54566 0 0 1 -.3281.4805 1.50294 1.50294 0 0 1 -.4688.3164 1.45394 1.45394 0 0 1 -.5859.1172h-3a1.454 1.454 0 0 1 -.58594-.1172 1.4263 1.4263 0 0 1 -.79687-.7969 1.45343 1.45343 0 0 1 -.11719-.5859 4.41435 4.41435 0 0 1 -1.75781-.3516 4.69474 4.69474 0 0 1 -1.42969-.9609 4.69737 4.69737 0 0 1 -.96094-1.4297 4.41489 4.41489 0 0 1 -.35156-1.7578v-1.6406a2.25141 2.25141 0 0 1 -.62109-.3282 2.47881 2.47881 0 0 1 -.46875-.4804 2.777 2.777 0 0 1 -.30469-.6094 2.32007 2.32007 0 0 1 -.10547-.6914v-5.25a8.9594 8.9594 0 0 1 .31641-2.39062 9.18844 9.18844 0 0 1 .91406-2.14454 8.90037 8.90037 0 0 1 1.40625-1.82812 8.854 8.854 0 0 1 3.97266-2.30859 8.65934 8.65934 0 0 1 2.39062-.32813zm-1.5 22.5h3v-1.5h-3zm-5.25-12a.72055.72055 0 0 0 -.52734.2227.72064.72064 0 0 0 -.22266.5273v3a.72064.72064 0 0 0 .22266.5273.72055.72055 0 0 0 .52734.2227h.75v-4.5zm14.25.75a.76059.76059 0 0 0 -.75-.75h-.75v4.5h.75a.76059.76059 0 0 0 .75-.75z"/>
    </symbol>

    <symbol id="chat" viewBox="0 0 24 22.5">
        <path d="m24 15h-4.5v3h-12l-4.5 4.5v-4.5h-3v-13.5h3v-4.5h21zm-6-9h-16.5v10.5h3v2.3789q.59766-.5976 1.17188-1.1953.58593-.5976 1.207-1.1836h11.12112zm4.5-4.5h-18v3h15v9h3z"/>
    </symbol>

    <symbol id="user" viewBox="0 0 14 16">
        <path d="m9.39062 9.39844a6.82476 6.82476 0 0 1 3.36718 2.55466 6.89972 6.89972 0 0 1 .9219 1.8985 7.202 7.202 0 0 1 .3203 2.1484h-1a6.05288 6.05288 0 0 0 -.4609-2.375 5.689 5.689 0 0 0 -3.1641-3.1641 6.05288 6.05288 0 0 0 -2.375-.4609 6.09047 6.09047 0 0 0 -1.60938.2109 6.00911 6.00911 0 0 0 -1.44531.6016 5.80762 5.80762 0 0 0 -1.21093.9297 5.89243 5.89243 0 0 0 -.92969 1.2109 6.09763 6.09763 0 0 0 -.80469 3.0469h-1a7.03411 7.03411 0 0 1 1.25781-4.0391 6.90645 6.90645 0 0 1 1.45313-1.5156 7.15254 7.15254 0 0 1 1.91406-1.03905 4.91282 4.91282 0 0 1 -1.09375-.79687 5.1161 5.1161 0 0 1 -.82813-1.03907 5.43873 5.43873 0 0 1 -.52343-1.22656 5.06539 5.06539 0 0 1 -.17969-1.34375 4.86161 4.86161 0 0 1 .39062-1.94531 4.99944 4.99944 0 0 1 2.65626-2.66406 4.9174 4.9174 0 0 1 1.95312-.39063 4.86145 4.86145 0 0 1 1.94531.39063 4.97866 4.97866 0 0 1 2.66409 2.66406 4.86177 4.86177 0 0 1 .3906 1.94531 4.78518 4.78518 0 0 1 -.1875 1.33594 4.87 4.87 0 0 1 -.5234 1.21875 5.08713 5.08713 0 0 1 -.8203 1.04687 4.82136 4.82136 0 0 1 -1.07818.79688zm-6.39062-4.39844a3.89271 3.89271 0 0 0 .3125 1.55469 4.2219 4.2219 0 0 0 .85938 1.27343 4.2219 4.2219 0 0 0 1.27343.85938 4.02355 4.02355 0 0 0 3.10938 0 4.1224 4.1224 0 0 0 1.26562-.85938 4.03921 4.03921 0 0 0 .85939-1.27343 3.81153 3.81153 0 0 0 .3203-1.55469 3.81153 3.81153 0 0 0 -.3203-1.55469 4.07367 4.07367 0 0 0 -2.125-2.125 3.93316 3.93316 0 0 0 -3.10938 0 4.03985 4.03985 0 0 0 -1.27343.85938 4.1224 4.1224 0 0 0 -.85939 1.26562 3.89271 3.89271 0 0 0 -.3125 1.55469z"/>
    </symbol>

    <symbol id="play" viewBox="0 0 20 24">
        <path d="M0 0L20 12L0 24V0Z" fill="black"/>
    </symbol>

    <symbol id="quote" viewBox="0 0 43 36">
        <path d="M0.208008 35.192L9.56801 0.199951H20.368L14.608 35.192H0.208008ZM22.528 35.192L31.888 0.199951H42.688L36.928 35.192H22.528Z"
              fill="#1D4E9E"/>
    </symbol>

    <symbol id="zoom" viewBox="0 0 61 61">
        <path d="M59.898 54.7271L46.1152 40.9443C49.4335 36.5269 51.2248 31.1499 51.2188 25.625C51.2188 11.5127 39.7373 0.03125 25.625 0.03125C11.5127 0.03125 0.03125 11.5127 0.03125 25.625C0.03125 39.7373 11.5127 51.2188 25.625 51.2188C31.1499 51.2248 36.5269 49.4335 40.9443 46.1152L54.7271 59.898C55.4247 60.5216 56.3347 60.8545 57.2701 60.8284C58.2056 60.8022 59.0955 60.4189 59.7572 59.7572C60.4189 59.0955 60.8022 58.2056 60.8284 57.2701C60.8545 56.3347 60.5216 55.4247 59.898 54.7271ZM7.34375 25.625C7.34375 22.0093 8.41593 18.4748 10.4247 15.4685C12.4335 12.4621 15.2886 10.119 18.6291 8.73533C21.9695 7.35166 25.6453 6.98963 29.1915 7.69502C32.7377 8.40041 35.9951 10.1415 38.5518 12.6982C41.1085 15.2549 42.8496 18.5123 43.555 22.0585C44.2604 25.6047 43.8983 29.2805 42.5147 32.6209C41.131 35.9614 38.7879 38.8165 35.7815 40.8253C32.7752 42.8341 29.2407 43.9063 25.625 43.9063C20.7783 43.9004 16.1318 41.9725 12.7046 38.5454C9.27749 35.1182 7.34957 30.4717 7.34375 25.625Z" fill="white"/>
    </symbol>
</svg>