<svg version="1" xmlns="http://www.w3.org/2000/svg" width="933.333" height="933.333" viewBox="0 0 700.000000 700.000000"><path d="M0 346.5V693l2.8.1h684.7l6-.1-.1-346.2L693.3.5 346.7.2 0 0v346.5zm581-234.6c.7.1.7 469.1 0 469.2-2.1.5-467.4.3-468.2-.2-1-.7-1.5-466.9-.5-468.6.4-.6 464.6-.9 468.7-.4z"/><path d="M242.2 223.3c-2.2 4-5.7 10.3-7.7 14.2-6.3 11.8-10.9 20.2-21 39-5.3 9.9-11.9 22.2-14.6 27.3L194 313l115.6-.2 115.6-.3 19.9-37c11-20.4 22.7-42 26-48.2l5.9-11.1H246.1l-3.9 7.1zM242.2 402.2c-2.2 4-8.8 16.3-14.7 27.3-5.9 11-12.5 23.1-14.6 27-2 3.8-7.1 13.3-11.3 21l-7.5 14 115.1.3c63.4.1 115.5-.1 115.9-.5.6-.7 16.9-30.8 33.7-62.3 2.5-4.7 5.6-10.5 7-13 1.4-2.5 4.5-8.2 6.9-12.8l4.4-8.2h-231l-3.9 7.2z"/></svg>