<svg viewBox="0 0 18 24" xmlns="http://www.w3.org/2000/svg"><path d="m9 0a8.65919 8.65919 0 0 1 2.3906.32813 8.98743 8.98743 0 0 1 6.2813 6.28125 8.66121 8.66121 0 0 1 .3281 2.39062v5.25a2.207 2.207 0 0 1 -.1758.8789 2.237 2.237 0 0 1 -1.1953 1.1953 2.207 2.207 0 0 1 -.8789.1758h-2.25v-7.5h2.25a1.58788 1.58788 0 0 1 .3867.04688 2.74991 2.74991 0 0 1 .3633.09374 7.65345 7.65345 0 0 0 -.5742-2.96484 7.537 7.537 0 0 0 -1.582-2.42578 7.42683 7.42683 0 0 0 -5.3438-2.25 7.3416 7.3416 0 0 0 -1.99219.26953 7.46284 7.46284 0 0 0 -1.793.76172 7.33416 7.33416 0 0 0 -1.5234 1.17187 7.60449 7.60449 0 0 0 -1.17188 1.51172 7.75956 7.75956 0 0 0 -.75 1.793 7.3416 7.3416 0 0 0 -.26953 1.99216v.14062a2.74922 2.74922 0 0 1 .36328-.09374 1.588 1.588 0 0 1 .38672-.04688h2.25v7.5h-1.5v1.5a2.96138 2.96138 0 0 0 .23438 1.1719 3.055 3.055 0 0 0 1.59374 1.5937 2.96071 2.96071 0 0 0 1.17188.2344 1.45343 1.45343 0 0 1 .11719-.5859 1.50311 1.50311 0 0 1 .3164-.4688 1.54611 1.54611 0 0 1 .48047-.3281 1.454 1.454 0 0 1 .58594-.1172h3a1.45394 1.45394 0 0 1 .5859.1172 1.64551 1.64551 0 0 1 .7969.7969 1.45394 1.45394 0 0 1 .1172.5859v1.5a1.45394 1.45394 0 0 1 -.1172.5859 1.54566 1.54566 0 0 1 -.3281.4805 1.50294 1.50294 0 0 1 -.4688.3164 1.45394 1.45394 0 0 1 -.5859.1172h-3a1.454 1.454 0 0 1 -.58594-.1172 1.4263 1.4263 0 0 1 -.79687-.7969 1.45343 1.45343 0 0 1 -.11719-.5859 4.41435 4.41435 0 0 1 -1.75781-.3516 4.69474 4.69474 0 0 1 -1.42969-.9609 4.69737 4.69737 0 0 1 -.96094-1.4297 4.41489 4.41489 0 0 1 -.35156-1.7578v-1.6406a2.25141 2.25141 0 0 1 -.62109-.3282 2.47881 2.47881 0 0 1 -.46875-.4804 2.777 2.777 0 0 1 -.30469-.6094 2.32007 2.32007 0 0 1 -.10547-.6914v-5.25a8.9594 8.9594 0 0 1 .31641-2.39062 9.18844 9.18844 0 0 1 .91406-2.14454 8.90037 8.90037 0 0 1 1.40625-1.82812 8.854 8.854 0 0 1 3.97266-2.30859 8.65934 8.65934 0 0 1 2.39062-.32813zm-1.5 22.5h3v-1.5h-3zm-5.25-12a.72055.72055 0 0 0 -.52734.2227.72064.72064 0 0 0 -.22266.5273v3a.72064.72064 0 0 0 .22266.5273.72055.72055 0 0 0 .52734.2227h.75v-4.5zm14.25.75a.76059.76059 0 0 0 -.75-.75h-.75v4.5h.75a.76059.76059 0 0 0 .75-.75z" fill="#fff"/></svg>