<svg viewBox="0 0 15 16" xmlns="http://www.w3.org/2000/svg"><path d="m15 16h-15l3-9h4v-2.04688a2.52891 2.52891 0 0 1 -.80469-.32031 2.56357 2.56357 0 0 1 -.63281-.54687 2.54778 2.54778 0 0 1 -.41406-.73438 2.46165 2.46165 0 0 1 -.14844-.85156 2.421 2.421 0 0 1 .19531-.96875 2.50708 2.50708 0 0 1 .53125-.78906 2.53482 2.53482 0 0 1 .79688-.53906 2.39493 2.39493 0 0 1 .97656-.20313 2.34094 2.34094 0 0 1 .96875.20313 2.44343 2.44343 0 0 1 .78906.53906 2.44361 2.44361 0 0 1 .53907.78906 2.34109 2.34109 0 0 1 .20312.96875 2.46165 2.46165 0 0 1 -.14844.85156 2.54778 2.54778 0 0 1 -.41406.73438 2.56357 2.56357 0 0 1 -.63281.54687 2.52891 2.52891 0 0 1 -.80469.32031v2.04688h4zm-9-13.5a1.47153 1.47153 0 0 0 .11719.58594 1.49209 1.49209 0 0 0 .79687.79687 1.52342 1.52342 0 0 0 1.17188 0 1.49209 1.49209 0 0 0 .79687-.79687 1.52342 1.52342 0 0 0 0-1.17188 1.49209 1.49209 0 0 0 -.79687-.79687 1.52342 1.52342 0 0 0 -1.17188 0 1.49209 1.49209 0 0 0 -.79687.79687 1.47153 1.47153 0 0 0 -.11719.58594zm-4.60938 12.5h12.21878l-2.3282-7h-3.2812v3.75a.16281.16281 0 0 1 -.0625.125.451.451 0 0 1 -.14062.0781 1.49148 1.49148 0 0 1 -.16407.0391q-.07812.0078-.13281.0078t-.14062-.0078q-.07813-.0156-.16407-.0391a.6119.6119 0 0 1 -.14062-.0781.17209.17209 0 0 1 -.05469-.125v-3.75h-3.28125z" fill="#fff"/></svg>