<svg viewBox="0 0 23.25 21" xmlns="http://www.w3.org/2000/svg"><path d="m16.5 18 1.5-1.5v4.5h-18v-15h1.5v13.5h15zm-1.5-6a14.185 14.185 0 0 0 -2.9414.3047 13.72825 13.72825 0 0 0 -2.76563.8789 14.91146 14.91146 0 0 0 -4.79297 3.3164v-1.5a10.27215 10.27215 0 0 1 .375-2.7891 10.54842 10.54842 0 0 1 7.3242-7.3359 10.39931 10.39931 0 0 1 2.8008-.375v-4.5l8.25 8.25-8.25 8.25zm1.5-6q-.7149 0-1.3359.01172-.62115 0-1.2188.05859a8.73045 8.73045 0 0 0 -2.4492.63281 8.75615 8.75615 0 0 0 -1.89844 1.07813 9.13594 9.13594 0 0 0 -1.5586 1.5 9.32437 9.32437 0 0 0 -1.16015 1.81645 8.80746 8.80746 0 0 0 -.69141 2.0507 15.576 15.576 0 0 1 4.207-1.9804 16.02 16.02 0 0 1 4.6055-.668h1.5v2.3789l4.6289-4.6289-4.6289-4.62891z" fill="#1d4e9e"/></svg>