<svg viewBox="0 0 15.9922 16" xmlns="http://www.w3.org/2000/svg"><path d="m12.5547 9.47656a1.65923 1.65923 0 0 1 .6562.13284 1.61749 1.61749 0 0 1 .5625.3672l1.7188 1.7187a1.62216 1.62216 0 0 1 .3672.5625 1.66143 1.66143 0 0 1 .1328.6563 1.71811 1.71811 0 0 1 -.1328.664 1.6383 1.6383 0 0 1 -.3672.5547q-.44535.45315-.8125.8047a4.85023 4.85023 0 0 1 -.7578.5859 3.302 3.302 0 0 1 -.8672.3594 4.87279 4.87279 0 0 1 -1.1485.1172 7.07 7.07 0 0 1 -2.00776-.3047 11.25128 11.25128 0 0 1 -2.05469-.8437 15.03389 15.03389 0 0 1 -2-1.2813 18.12536 18.12536 0 0 1 -1.85156-1.6172 18.62825 18.62825 0 0 1 -1.60157-1.8593 14.89387 14.89387 0 0 1 -1.26562-2 11.32641 11.32641 0 0 1 -.82812-2.03911 7.00384 7.00384 0 0 1 -.29688-1.96875 4.771 4.771 0 0 1 .11719-1.14063 3.3047 3.3047 0 0 1 .35937-.86719 4.41361 4.41361 0 0 1 .58594-.75781q.35157-.36719.80469-.8125a1.7405 1.7405 0 0 1 .55469-.375 1.68 1.68 0 0 1 .66406-.13281 1.66078 1.66078 0 0 1 .65625.13281 1.71776 1.71776 0 0 1 .5625.375l1.71875 1.71875a1.61953 1.61953 0 0 1 .36718.5625 1.66061 1.66061 0 0 1 .13282.65625 1.55246 1.55246 0 0 1 -.11719.61719 2.25046 2.25046 0 0 1 -.28906.48438 2.77134 2.77134 0 0 1 -.38281.39843q-.20313.17969-.375.35157a2.19786 2.19786 0 0 0 -.28907.35156.65207.65207 0 0 0 -.11719.375.69227.69227 0 0 0 .21094.50781l4.30469 4.30465a.692.692 0 0 0 .50781.211.65235.65235 0 0 0 .375-.1172 2.19607 2.19607 0 0 0 .3515-.2891q.1719-.1719.3516-.375a2.77475 2.77475 0 0 1 .3984-.3828 2.24933 2.24933 0 0 1 .4844-.289 1.55122 1.55122 0 0 1 .61724-.11724zm-.6485 5.52344a3.65411 3.65411 0 0 0 .9376-.1016 2.5762 2.5762 0 0 0 .6874-.3046 3.69262 3.69262 0 0 0 .5938-.5q.289-.297.6641-.6719a.69242.69242 0 0 0 .2109-.5078.645.645 0 0 0 -.1172-.3282 2.579 2.579 0 0 0 -.289-.4062q-.1797-.2109-.4063-.4297-.2187-.2265-.4375-.4219-.2109-.2031-.3984-.3672-.1797-.17175-.2813-.2734a.7014.7014 0 0 0 -.5156-.2109.65158.65158 0 0 0 -.375.1172 2.40814 2.40814 0 0 0 -.3438.289q-.17175.1719-.3593.3828a3.02745 3.02745 0 0 1 -.3985.375 2.18281 2.18281 0 0 1 -.4922.2891 1.49643 1.49643 0 0 1 -.60934.1172 1.81173 1.81173 0 0 1 -.66406-.125 1.74258 1.74258 0 0 1 -.55469-.375l-4.30469-4.30471a1.74094 1.74094 0 0 1 -.375-.55469 1.81111 1.81111 0 0 1 -.125-.66406 1.49649 1.49649 0 0 1 .11719-.60938 2.185 2.185 0 0 1 .28907-.49218 3.02741 3.02741 0 0 1 .375-.39844q.21093-.1875.38281-.35938a2.41124 2.41124 0 0 0 .28906-.34375.652.652 0 0 0 .11719-.375.7014.7014 0 0 0 -.21094-.51562q-.10156-.10156-.27344-.28125-.16406-.1875-.36718-.39844-.19531-.21875-.42188-.4375-.21875-.22656-.42969-.40625a2.57511 2.57511 0 0 0 -.40625-.28906.64456.64456 0 0 0 -.32812-.11719.69224.69224 0 0 0 -.50782.21094q-.375.375-.67187.66406a4.32088 4.32088 0 0 0 -.5.59375 2.4369 2.4369 0 0 0 -.3125.6875 3.61605 3.61605 0 0 0 -.10156.92969 6.21912 6.21912 0 0 0 .28125 1.80468 10.52565 10.52565 0 0 0 .78906 1.85938 14.70162 14.70162 0 0 0 1.19531 1.8359 16.55477 16.55477 0 0 0 1.5 1.7032 17.04111 17.04111 0 0 0 1.71094 1.4843 14.84515 14.84515 0 0 0 1.82813 1.1797 10.62568 10.62568 0 0 0 1.84372.7735 6.20576 6.20576 0 0 0 1.7656.2734z" fill="#fff"/></svg>