<svg viewBox="0 0 14 16" xmlns="http://www.w3.org/2000/svg"><path d="m9.39062 9.39844a6.82476 6.82476 0 0 1 3.36718 2.55466 6.89972 6.89972 0 0 1 .9219 1.8985 7.202 7.202 0 0 1 .3203 2.1484h-1a6.05288 6.05288 0 0 0 -.4609-2.375 5.689 5.689 0 0 0 -3.1641-3.1641 6.05288 6.05288 0 0 0 -2.375-.4609 6.09047 6.09047 0 0 0 -1.60938.2109 6.00911 6.00911 0 0 0 -1.44531.6016 5.80762 5.80762 0 0 0 -1.21093.9297 5.89243 5.89243 0 0 0 -.92969 1.2109 6.09763 6.09763 0 0 0 -.80469 3.0469h-1a7.03411 7.03411 0 0 1 1.25781-4.0391 6.90645 6.90645 0 0 1 1.45313-1.5156 7.15254 7.15254 0 0 1 1.91406-1.03905 4.91282 4.91282 0 0 1 -1.09375-.79687 5.1161 5.1161 0 0 1 -.82813-1.03907 5.43873 5.43873 0 0 1 -.52343-1.22656 5.06539 5.06539 0 0 1 -.17969-1.34375 4.86161 4.86161 0 0 1 .39062-1.94531 4.99944 4.99944 0 0 1 2.65626-2.66406 4.9174 4.9174 0 0 1 1.95312-.39063 4.86145 4.86145 0 0 1 1.94531.39063 4.97866 4.97866 0 0 1 2.66409 2.66406 4.86177 4.86177 0 0 1 .3906 1.94531 4.78518 4.78518 0 0 1 -.1875 1.33594 4.87 4.87 0 0 1 -.5234 1.21875 5.08713 5.08713 0 0 1 -.8203 1.04687 4.82136 4.82136 0 0 1 -1.07818.79688zm-6.39062-4.39844a3.89271 3.89271 0 0 0 .3125 1.55469 4.2219 4.2219 0 0 0 .85938 1.27343 4.2219 4.2219 0 0 0 1.27343.85938 4.02355 4.02355 0 0 0 3.10938 0 4.1224 4.1224 0 0 0 1.26562-.85938 4.03921 4.03921 0 0 0 .85939-1.27343 3.81153 3.81153 0 0 0 .3203-1.55469 3.81153 3.81153 0 0 0 -.3203-1.55469 4.07367 4.07367 0 0 0 -2.125-2.125 3.93316 3.93316 0 0 0 -3.10938 0 4.03985 4.03985 0 0 0 -1.27343.85938 4.1224 4.1224 0 0 0 -.85939 1.26562 3.89271 3.89271 0 0 0 -.3125 1.55469z" fill="#1d4e9e"/></svg>