<svg viewBox="0 0 31.99994 31.67889" xmlns="http://www.w3.org/2000/svg"><path d="m28.77114 10.574 2.1892 2.1894a3.55655 3.55655 0 0 1 -1.4814 5.9165 3.55574 3.55574 0 0 1 -2.8675 5.6577c-.0398 0-.0796-.0008-.1194-.002a3.5492 3.5492 0 0 1 -3.6686 3.669c.0012.0395.0019.0796.0019.1193a3.5549 3.5549 0 0 1 -6.0686 2.5137l-.7568-.7568-.7566.7566a3.55216 3.55216 0 0 1 -6.06395-2.6321c-.04.0015-.08007.0029-.12011.0029a3.55 3.55 0 0 1 -3.55053-3.6735c-.04028.0014-.08032.0029-.12061.0029a3.55543 3.55543 0 0 1 -2.86693-5.6572 3.557 3.557 0 0 1 -1.49121-5.90721l.01026-.0108 2.19237-2.1919.00928-.0095a3.60784 3.60784 0 0 1 .41968-.3594l-.64844-.6484a3.14323 3.14323 0 0 1 -.90429-2.41919 3.65177 3.65177 0 0 1 1.0808-2.39379l3.70825-3.70848a3.53233 3.53233 0 0 1 4.98973 0l1.7236 1.72387a11.35367 11.35367 0 0 1 4.7776-.00049l1.7231-1.72338a3.53241 3.53241 0 0 1 4.9898 0l3.7085 3.70849a3.31382 3.31382 0 0 1 .3481 4.64134l-.7898.78983.3897.3899zm-17.1984 18.7069a1.636 1.636 0 0 0 2.3139 0l2.9363-2.9362a1.6364 1.6364 0 0 0 -1.1567-2.7935h-.0003a1.6261 1.6261 0 0 0 -1.1567.4793l-.0012.0012-2.9346 2.9345-.0073.0071a1.63834 1.63834 0 0 0 .0066 2.30759zm-3.67508-5.9802a1.63614 1.63614 0 0 0 2.31758 2.3101l.0005-.0005.0032-.0029 2.9329-2.9329.0058-.0059.7288-.7287a1.63607 1.63607 0 1 0 -2.3135-2.314l-.0117.0113-.7195.7197-.0029.0032-2.93679 2.9362-.00024.0003zm-3.66576-1.36081a1.63583 1.63583 0 0 0 2.31347-.0003l2.93969-2.93959a1.63607 1.63607 0 0 0 -2.31689-2.3106l-.01148.0112-2.91576 2.9158-.00928.0095a1.636 1.636 0 0 0 .00025 2.314zm-1.8259-7.8298-.011.0112a1.63615 1.63615 0 0 0 2.31542 2.3123l2.20214-2.2019a1.63618 1.63618 0 0 0 -1.15649-2.7933h-.00025a1.6744 1.6744 0 0 0 -.23779.0171l-.01758.003a1.62386 1.62386 0 0 0 -.89477.4521l-.00757.0078zm11.15324-9.37085-.0244.00513c-.0193.00463-.0383.009-.0576.01245l-.0427.0061c-.0159.00195-.0318.00391-.0479.00513-.0168.00146-.0337.00219-.0505.00244-.0137.00049-.0271.00073-.0408.00049-.0181-.00025-.0359-.00122-.0537-.00269l-.0388-.00342c-.0176-.00195-.0349-.00464-.0523-.00757l-.0407-.00781c-.0159-.00342-.0315-.00708-.0472-.01147l-.0446-.01294-.0411-.01441c-.0158-.0061-.0317-.0122-.0471-.019l-.0371-.01709c-.0156-.00757-.031-.01538-.0461-.02392l-.0369-.02173c-.0137-.00855-.0276-.01709-.041-.02637-.0137-.00952-.0271-.01953-.0403-.02978l-.0325-.02539c-.0156-.01319-.0305-.02686-.0451-.041l-.0174-.01562-2.1022-2.10229a1.61133 1.61133 0 0 0 -2.2764 0l-3.70825 3.70818a1.738 1.738 0 0 0 -.52148 1.13525 1.24886 1.24886 0 0 0 .345.96435l1.3247 1.32495c.02027-.00025.04053-.00147.061-.00147h.00024a3.55375 3.55375 0 0 1 3.30932 4.84935 3.54972 3.54972 0 0 1 2.77656 2.9707 3.57125 3.57125 0 0 1 .8877-.1118h.0003a3.55471 3.55471 0 0 1 3.5547 3.5547 3.58184 3.58184 0 0 1 -.1111.8862 3.55525 3.55525 0 0 1 2.0063 6.0322l-.8232.8232.7568.7566a1.63614 1.63614 0 1 0 2.314-2.3137.95933.95933 0 0 1 1.3567-1.3567 1.63621 1.63621 0 1 0 2.3137-2.3142.95933.95933 0 0 1 1.3567-1.3567 1.63615 1.63615 0 0 0 2.3264-2.3012l-.013-.013-1.3757-1.3759a.95934.95934 0 0 1 -.0779-1.2686l.0493-.0632a.9593.9593 0 0 1 1.2471-.2339 1.63636 1.63636 0 0 0 1.9932-2.5637l-2.2019-2.2017-.0127-.0132-4.72633-4.72626a9.45885 9.45885 0 0 0 -9.10376-2.43969zm14.2427 3.28563c.4206-.42089.258-1.322-.3482-1.92821l-3.7085-3.70824a1.61121 1.61121 0 0 0 -2.2763 0l-1.0205 1.0205a11.35632 11.35632 0 0 1 3.5712 2.41332l2.9922 2.99243z" fill="#1d4e9e"/></svg>