<svg viewBox="0 0 28.125 32" xmlns="http://www.w3.org/2000/svg"><g fill="#1d4e9e"><path d="m27.4069 19.8125a2.811 2.811 0 0 0 -2.0944-4.6875h-5.4587a18.17883 18.17883 0 0 0 .7712-4.7506v-.9369a3.75458 3.75458 0 0 0 -3.75-3.75h-.9375a.93731.93731 0 0 0 -.9094.71l-.5106 2.04313c-.7156 2.86127-2.9875 6.01807-5.3387 6.59187a2.81637 2.81637 0 0 0 -2.6163-1.7825h-5.625a.93784.93784 0 0 0 -.9375.9375v16.875a.93784.93784 0 0 0 .9375.9375h5.625a2.81534 2.81534 0 0 0 2.5387-1.6031l3.2213 1.0737a10.28817 10.28817 0 0 0 3.2612.5294h7.8538a2.81322 2.81322 0 0 0 2.615-3.8487 2.811 2.811 0 0 0 1.3544-4.5888 2.80692 2.80692 0 0 0 0-3.75zm-19.9069 9.375a.93863.93863 0 0 1 -.9375.9375h-4.6875v-15h4.6875a.93863.93863 0 0 1 .9375.9375zm15.9375-8.4375h1.875a.9375.9375 0 0 1 0 1.875h-1.875a.9375.9375 0 0 0 0 1.875h1.875a.9375.9375 0 0 1 0 1.875h-1.875a.9375.9375 0 0 0 0 1.875.9375.9375 0 0 1 0 1.875h-7.8538a8.41934 8.41934 0 0 1 -2.6687-.4331l-3.54-1.18v-11.6007a7.55448 7.55448 0 0 0 4.2094-2.7349 13.68129 13.68129 0 0 0 2.7519-5.28067l.3331-1.33313h.2056a1.87726 1.87726 0 0 1 1.875 1.875v.9369a14.83375 14.83375 0 0 1 -.8975 4.7506h-1.915a.9375.9375 0 0 0 0 1.875h9.375a.9375.9375 0 0 1 0 1.875h-1.875a.9375.9375 0 0 0 0 1.875z"/><path d="m4.6875 28.25a.9375.9375 0 1 0 -.9375-.9375.93748.93748 0 0 0 .9375.9375z"/><path d="m17.8125 0a.93749.93749 0 0 0 -.9375.9375v1.9375a.9375.9375 0 0 0 1.875 0v-1.9375a.93749.93749 0 0 0 -.9375-.9375z"/><path d="m13.835 4.13425-1.3258-1.32581a.93749.93749 0 1 0 -1.3258 1.32581l1.3258 1.32581a.93749.93749 0 0 0 1.3258-1.32581z"/><path d="m24.4416 2.80844a.93745.93745 0 0 0 -1.3258 0l-1.3258 1.32575a.93751.93751 0 0 0 1.3258 1.32588l1.3258-1.32582a.93733.93733 0 0 0 0-1.32581z"/></g></svg>