<svg viewBox="0 0 22.5 32" xmlns="http://www.w3.org/2000/svg"><g fill="#1d4e9e"><path d="m11.25 0a11.25213 11.25213 0 0 0 -9.57069 17.1658l8.93029 14.391a.93762.93762 0 0 0 .7966.4432h.0074a.93726.93726 0 0 0 .7969-.4557l8.7027-14.5305a11.25247 11.25247 0 0 0 -9.6632-17.0138zm8.0541 16.0511-7.9121 13.2105-8.11906-13.0837a9.38133 9.38133 0 1 1 16.03116-.1268z"/><path d="m11.25 5.625a5.625 5.625 0 1 0 5.625 5.625 5.6314 5.6314 0 0 0 -5.625-5.625zm0 9.3875a3.76251 3.76251 0 1 1 3.7563-3.7625 3.76535 3.76535 0 0 1 -3.7563 3.7625z"/></g></svg>