<svg viewBox="0 0 32 31.9998" xmlns="http://www.w3.org/2000/svg"><path d="m31.0625 2.30957h-4.1064q.0222-.68224.0231-1.37207a.93757.93757 0 0 0 -.9375-.9375h-20.08345a.93759.93759 0 0 0 -.9375.9375q0 .68958.0232 1.37207h-4.10645a.93743.93743 0 0 0 -.9375.9375 20.319 20.319 0 0 0 3.09131 11.15963c1.97046 2.9617 4.59521 4.6604 7.43069 4.8257a9.62471 9.62471 0 0 0 2.03 1.7049v4.1667h-1.5728a3.45189 3.45189 0 0 0 -3.448 3.448v1.5728h-.0666a.9375.9375 0 1 0 0 1.875h17.0708a.9375.9375 0 1 0 0-1.875h-.0666v-1.5728a3.452 3.452 0 0 0 -3.448-3.448h-1.5728v-4.1667a9.62253 9.62253 0 0 0 2.0303-1.7049c2.8352-.1653 5.4599-1.864 7.4306-4.8257a20.319 20.319 0 0 0 3.0911-11.15963.93744.93744 0 0 0 -.9375-.9375zm-26.41016 11.05863a18.06811 18.06811 0 0 1 -2.75756-9.18363h3.2539a31.32851 31.32851 0 0 0 2.91232 11.37333q.375.75.78271 1.4172a9.04134 9.04134 0 0 1 -4.19137-3.6069zm17.94146 15.1838v1.573h-13.18755v-1.573a1.57481 1.57481 0 0 1 1.573-1.573h10.04155a1.57485 1.57485 0 0 1 1.573 1.573zm-5.0208-3.448h-3.146v-3.352a6.10007 6.10007 0 0 0 3.146 0zm.5806-5.5825a.90559.90559 0 0 0 -.1216.0615 4.377 4.377 0 0 1 -4.0632.0005.93314.93314 0 0 0 -.1229-.0625 7.5474 7.5474 0 0 1 -2.1188-1.7468.94411.94411 0 0 0 -.1194-.1397 14.77852 14.77852 0 0 1 -1.8697-2.9153 30.94847 30.94847 0 0 1 -2.83126-12.8442h18.18656a30.95747 30.95747 0 0 1 -2.8313 12.8442 14.79364 14.79364 0 0 1 -1.8694 2.9153.92474.92474 0 0 0 -.1199.1399 7.548 7.548 0 0 1 -2.1191 1.7471zm9.1941-6.1533a9.04133 9.04133 0 0 1 -4.1915 3.6069q.407-.6672.7828-1.4172a31.33435 31.33435 0 0 0 2.9123-11.37333h3.2539a18.06876 18.06876 0 0 1 -2.7575 9.18363z" fill="#1d4e9e"/></svg>