<svg fill="none" viewBox="0 0 170 52" xmlns="http://www.w3.org/2000/svg"><path clip-rule="evenodd" d="m43.1968 8.30708h-34.88972v34.88972h34.88972zm-34.88972-8.30708h-8.30708v8.30708 34.88972 8.3071h8.30708 34.88972 8.3071v-8.3071-34.88972-8.30708h-8.3071zm9.96852 16.0604h17.168l-3.8767 7.1994h-17.168zm17.168 13.2913h-17.168l-3.8767 7.1995h17.168z" fill="#fff" fill-rule="evenodd"/><g fill="#fff"><path d="m147.423 19.7243c-2.55 0-4.67-.8447-6.36-2.5342-1.673-1.7057-2.51-3.8176-2.51-6.3356 0-2.51792.837-4.62165 2.51-6.31112 1.69-1.70571 3.81-2.55858 6.36-2.55858 1.527 0 2.94.35739 4.24 1.07217 1.3.69853 2.323 1.65699 3.07 2.87535l-3.362 1.94941c-.374-.66605-.91-1.17777-1.609-1.53515-.698-.37364-1.478-.56045-2.339-.56045-1.511 0-2.721.46298-3.631 1.38894-.893.92596-1.34 2.15245-1.34 3.67943 0 1.5271.447 2.7536 1.34 3.6795.91.926 2.12 1.389 3.631 1.389.861 0 1.641-.1868 2.339-.5605.715-.3736 1.251-.8853 1.609-1.5351l3.362 1.9494c-.731 1.2183-1.746 2.1849-3.046 2.8997-1.299.6985-2.721 1.0478-4.264 1.0478z"/><path clip-rule="evenodd" d="m68.7607 2.32594c1.6732 0 3.0865.56858 4.2399 1.70574 1.1534 1.13713 1.7301 2.51796 1.7301 4.14245 0 1.6245-.5767 3.00527-1.7301 4.14247s-2.5667 1.7057-4.2399 1.7057h-2.5586v5.3609h-3.8988v-13.37391h-2.7994l1.3845-3.68105h1.4149v-.0023zm0 8.04126c.601 0 1.0965-.2112 1.4864-.63355.3898-.42237.5848-.9422.5848-1.55952 0-.6173-.195-1.13714-.5848-1.55952-.3899-.42237-.8854-.63355-1.4864-.63355h-2.5586v4.38614z" fill-rule="evenodd"/><path d="m80.5751 15.6306h6.8228l-1.3585 3.7526h-9.3631v-17.05726h10.5998v3.75259h-6.701v2.82663h6.0918v3.70384h-6.0918z"/><path clip-rule="evenodd" d="m99.8263 16.7027.8527 2.6805h4.264l-5.799-17.05726h-4.971l-5.7994 17.05726h4.2643l.8528-2.6805zm-3.1678-9.91751 1.9981 6.26241h-3.9962z" fill-rule="evenodd"/><path d="m106.807 19.3832-1.39-3.6552c.943.1463 1.649 0 2.12-.4386.472-.4386.707-1.3321.707-2.6804v-10.28306h11.794v17.05726h-3.899v-13.30467h-3.996v6.38427c0 1.4458-.203 2.6723-.609 3.6795-.39 1.0072-.926 1.7463-1.609 2.2174-.666.4549-1.372.7635-2.12.926v.0001l-.002.0004c-.199.0437-.309.0677-.42.0809-.135.0161-.272.0161-.576.0161z"/><path d="m132.463 10.1235v9.2597h3.899v-17.05726h-2.924l-6.579 9.25966v-9.25966h-3.899v17.05726h2.924z"/><path d="m168.013 6.07853 1.662-3.75259h-14.333v3.75259h4.386v13.30467h3.899v-13.30467z"/><path d="m62.5026 49.2887-1.4177-3.6552c.9422.1462 1.6489 0 2.12-.4386s.7066-1.3321.7066-2.6804v-10.2831h11.7939v17.0573h-3.8988v-13.3047h-3.9963v6.3843c0 1.4458-.203 2.6723-.6092 3.6795-.3898 1.0072-.9259 1.7463-1.6082 2.2174-.6661.4549-1.3727.7635-2.12.926l-.0691.015-.0012.0003c-.1598.0349-.2519.055-.345.0665-.1261.0157-.2541.0157-.555.0157z"/><path d="m88.1309 40.029v9.2597h3.8988v-17.0573h-2.9241l-6.5792 9.2597v-9.2597h-3.8988v17.0573h2.9241z"/><path d="m104.095 40.4676c1.544.861 2.315 2.1931 2.315 3.9963 0 1.5595-.593 2.8104-1.779 3.7526-1.185.9422-2.696 1.4133-4.532 1.4133-3.2002 0-5.3608-1.3483-6.4817-4.045l3.3627-1.925c.5199 1.5432 1.5596 2.3149 3.119 2.3149 1.608 0 2.412-.6011 2.412-1.8032s-.812-1.8032-2.436-1.8032h-2.169v-3.4602h1.6814c1.5436 0 2.3146-.5604 2.3146-1.6813s-.658-1.6814-1.9735-1.6814c-1.2671 0-2.1687.6498-2.7048 1.9494l-3.3383-1.925c1.2346-2.453 3.249-3.6795 6.0431-3.6795 1.7215 0 3.1275.463 4.2155 1.3889 1.105.9098 1.657 2.1281 1.657 3.6552 0 1.4783-.569 2.656-1.706 3.5332z"/><path d="m117.852 40.029v9.2597h3.899v-17.0573h-2.924l-6.579 9.2597v-9.2597h-3.899v17.0573h2.924z"/><path d="m133.933 32.2314h3.899v17.0573h-3.899v-6.7742h-5.361v6.7742h-3.899v-17.0573h3.899v6.5305h5.361z"/><path d="m150.507 35.984 1.661-3.7526h-11.408v17.0573h3.899v-13.3047z"/></g></svg>